<svg xmlns="http://www.w3.org/2000/svg" version="1.1" xmlns:xlink="http://www.w3.org/1999/xlink" xmlns:svgjs="http://svgjs.dev/svgjs" width="1500" height="937" viewBox="0 0 1500 937"><g transform="matrix(1,0,0,1,0,0)"><svg viewBox="0 0 576 360" data-background-color="#f9f6ed" preserveAspectRatio="xMidYMid meet" height="937" width="1500" xmlns="http://www.w3.org/2000/svg" xmlns:xlink="http://www.w3.org/1999/xlink"><g id="tight-bounds" transform="matrix(1,0,0,1,0,0)"><svg viewBox="0 0 576 360" height="360" width="576"><g><svg></svg></g><g><svg viewBox="0 0 576 360" height="360" width="576"><g><path transform="translate(288,180) scale(180,180)" d="M-0.866-0.5l0.866-0.5 0.866 0.5 0 1-0.866 0.5-0.866-0.5z" fill="#21272d" fill-rule="nonzero" stroke="none" stroke-width="1" stroke-linecap="butt" stroke-linejoin="miter" stroke-miterlimit="10" stroke-dasharray="" stroke-dashoffset="0" font-family="none" font-weight="none" font-size="none" text-anchor="none" style="mix-blend-mode: normal" data-fill-palette-color="tertiary"></path></g><g transform="matrix(1,0,0,1,172.8,141.59716264832628)"><svg viewBox="0 0 230.4 76.80567470334744" height="76.80567470334744" width="230.4"><g><svg viewBox="0 0 374.8066097770424 124.94476800000001" height="76.80567470334744" width="230.4"><g transform="matrix(1,0,0,1,144.4066097770424,21.252942428128243)"><svg viewBox="0 0 230.4 82.43888314374352" height="82.43888314374352" width="230.4"><g id="textblocktransform"><svg viewBox="0 0 230.4 82.43888314374352" height="82.43888314374352" width="230.4" id="textblock"><g><svg viewBox="0 0 230.4 82.43888314374352" height="82.43888314374352" width="230.4"><g transform="matrix(1,0,0,1,0,0)"><svg width="230.4" viewBox="2.4 -34.15 96.69 34.6" height="82.43888314374352" data-palette-color="#f9f6ed"><path d="M28-5.95L28-1.7Q24.9 0.4 19.5 0.4L19.5 0.4Q11.9 0.4 7.15-4.28 2.4-8.95 2.4-17L2.4-17Q2.4-24.6 7.23-29.38 12.05-34.15 19.35-34.15L19.35-34.15Q24.6-34.15 27.9-32.35L27.9-32.35 27.9-28.2Q25.7-29.35 23.95-29.85 22.2-30.35 19.35-30.35L19.35-30.35Q13.9-30.35 10.28-26.65 6.65-22.95 6.65-17L6.65-17Q6.65-10.8 10.25-7.1 13.85-3.4 19.8-3.4L19.8-3.4Q24.6-3.4 28-5.95L28-5.95ZM41.5-3.05L41.5-3.05Q44.2-3.05 45.8-4.58 47.4-6.1 47.4-8.45L47.4-8.45 47.4-11.7 43-11.7Q39.8-11.7 38.2-10.45 36.6-9.2 36.6-7.3 36.6-5.4 37.85-4.23 39.1-3.05 41.5-3.05ZM47.45 0L47.45-3Q45.5 0.25 40.35 0.25L40.35 0.25Q36.8 0.25 34.62-1.85 32.45-3.95 32.45-7.15L32.45-7.15Q32.45-10.8 35.22-12.83 38-14.85 42.8-14.85L42.8-14.85 47.4-14.85 47.4-16.15Q47.4-19.15 46.05-20.68 44.7-22.2 41.5-22.2L41.5-22.2Q37.45-22.2 34.3-20.05L34.3-20.05 34.3-24Q37.15-25.75 41.8-25.75L41.8-25.75Q51.35-25.75 51.35-16.05L51.35-16.05 51.35 0 47.45 0ZM71.05-4.4L71.05-0.65Q69.4 0.25 67.35 0.25L67.35 0.25Q59.85 0.25 59.85-7.4L59.85-7.4 59.85-22.15 55.8-22.15 55.8-25.35 59.85-25.35 59.85-31.65 63.8-31.65 63.8-25.35 70.8-25.35 70.8-22.15 63.8-22.15 63.8-7.3Q63.8-3.25 67.6-3.25L67.6-3.25Q69.55-3.25 71.05-4.4L71.05-4.4ZM99.09-12.6L99.09-12.6Q99.09-6.95 95.89-3.25 92.69 0.45 87.09 0.45L87.09 0.45Q81.64 0.45 78.47-3.23 75.29-6.9 75.29-12.5L75.29-12.5Q75.29-18.15 78.57-21.93 81.84-25.7 87.09-25.7L87.09-25.7Q92.84-25.7 95.97-22 99.09-18.3 99.09-12.6ZM79.39-12.55L79.39-12.55Q79.39-8.6 81.49-5.83 83.59-3.05 87.09-3.05L87.09-3.05Q90.89-3.05 92.94-5.78 94.99-8.5 94.99-12.55L94.99-12.55Q94.99-16.75 93.04-19.48 91.09-22.2 87.09-22.2L87.09-22.2Q83.49-22.2 81.44-19.4 79.39-16.6 79.39-12.55Z" opacity="1" transform="matrix(1,0,0,1,0,0)" fill="#f9f6ed" class="wordmark-text-0" data-fill-palette-color="quaternary" id="text-0"></path></svg></g></svg></g></svg></g></svg></g><g><svg viewBox="0 0 124.94476800000001 124.94476800000001" height="124.94476800000001" width="124.94476800000001"><g><svg></svg></g><g id="icon-0"><svg viewBox="0 0 124.94476800000001 124.94476800000001" height="124.94476800000001" width="124.94476800000001"><g><rect width="113.6071872" height="113.6071872" x="5.668790400000006" y="5.668790400000006" fill="#ea5141" data-fill-palette-color="accent"></rect><rect width="113.6071872" height="113.6071872" x="11.337580800000005" y="6.217248937900877e-15" fill="#ea5141" opacity="0.5" data-fill-palette-color="accent"></rect></g><g transform="matrix(1,0,0,1,17.895379017617415,16.196544000000003)"><svg viewBox="0 0 89.15400996476518 92.55168" height="92.55168" width="89.15400996476518"><g><svg xmlns="http://www.w3.org/2000/svg" data-name="Layer 1" viewBox="2.8999743346781823 1.1099999999999999 94.20002569866249 97.79" x="0" y="0" height="92.55168" width="89.15400996476518" class="icon-cg-0" data-fill-palette-color="quaternary" id="cg-0"><path d="M66.72 29.17h1.63A12.56 12.56 0 0 0 80.91 16.61V9a2 2 0 0 0-2-2H68.35V3.11a2 2 0 0 0-2-2H33.65a2 2 0 0 0-2 2V7H21.1a2 2 0 0 0-2 2v7.63A12.55 12.55 0 0 0 31.65 29.17h1.63A18.38 18.38 0 0 0 46.13 39.55v6.06h-4.5a2.51 2.51 0 0 0-2.51 2.51v3.3H36.87a1.6 1.6 0 0 0-1.6 1.6v8.58a1.6 1.6 0 0 0 1.6 1.6H63.13a1.6 1.6 0 0 0 1.6-1.6V53a1.6 1.6 0 0 0-1.6-1.6H60.89v-3.3a2.51 2.51 0 0 0-2.51-2.51h-4.5V39.55A18.38 18.38 0 0 0 66.72 29.17Zm1.63-7.56V13.33h6.2v3.28a6.21 6.21 0 0 1-6.2 6.2h0C68.34 22.41 68.35 22 68.35 21.61Zm-36.71 1.2a6.21 6.21 0 0 1-6.2-6.2V13.33h6.2v8.28c0 0.4 0 0.8 0 1.2ZM87.59 35.3a5 5 0 1 1-5-5A5 5 0 0 1 87.59 35.3Zm-14 11.09a4.26 4.26 0 0 1 4.23-4.74h1.56a0.21 0.21 0 0 1 0.16 0.08L82.11 45a0.52 0.52 0 0 0 0.81 0l2.61-3.26a0.21 0.21 0 0 1 0.16-0.08h1.64a4.26 4.26 0 0 1 4.23 4.74l-1.24 9.31a3.61 3.61 0 0 1-2.43 3l-2.08 19.1a1.65 1.65 0 0 1-1.64 1.47h-3.3a1.65 1.65 0 0 1-1.64-1.47L77.14 58.7a3.62 3.62 0 0 1-2.35-3ZM12.41 35.3a5 5 0 1 1 5 5A5 5 0 0 1 12.41 35.3Zm0.26 6.36h1.56a0.21 0.21 0 0 1 0.16 0.08L17 45a0.52 0.52 0 0 0 0.81 0l2.61-3.26a0.21 0.21 0 0 1 0.16-0.08h1.64a4.26 4.26 0 0 1 4.23 4.74l-1.24 9.31a3.61 3.61 0 0 1-2.43 3L20.7 77.82a1.65 1.65 0 0 1-1.64 1.47h-3.3a1.65 1.65 0 0 1-1.64-1.47L12 58.7a3.62 3.62 0 0 1-2.35-3L8.44 46.4A4.26 4.26 0 0 1 12.67 41.66ZM97.1 85.83V96.76A2.14 2.14 0 0 1 95 98.9H5A2.14 2.14 0 0 1 2.9 96.76V85.83A2.14 2.14 0 0 1 5 83.68H33.17a1 1 0 0 0 1-1V70.95a1.78 1.78 0 0 1 1.78-1.78H64.11a1.78 1.78 0 0 1 1.78 1.78V82.73a1 1 0 0 0 1 1H95A2.14 2.14 0 0 1 97.1 85.83Z" fill="#f9f6ed" data-fill-palette-color="quaternary"></path></svg></g></svg></g></svg></g></svg></g></svg></g></svg></g></svg></g><defs></defs></svg><rect width="576" height="360" fill="none" stroke="none" visibility="hidden"></rect></g></svg></g></svg>